<?xml version="1.0" encoding="UTF-8"?>
<svg width="800" height="600" viewBox="0 0 800 600" xmlns="http://www.w3.org/2000/svg">
    <!-- Ãrvore -->
    <g transform="translate(400, 500)">
        <path d="M0,-200 C-50,-200 -100,-150 -100,-100 C-100,-50 -50,0 0,0 C50,0 100,-50 100,-100 C100,-150 50,-200 0,-200" fill="#4CAF50"/>
        <rect x="-20" y="0" width="40" height="100" fill="#795548"/>
    </g>
    
    <!-- Sol -->
    <circle cx="200" cy="150" r="60" fill="#FFE45E"/>
    <g transform="translate(200, 150)">
        <line x1="0" y1="-80" x2="0" y2="-60" stroke="#FFE45E" stroke-width="4"/>
        <line x1="80" y1="0" x2="60" y2="0" stroke="#FFE45E" stroke-width="4"/>
        <line x1="0" y1="80" x2="0" y2="60" stroke="#FFE45E" stroke-width="4"/>
        <line x1="-80" y1="0" x2="-60" y2="0" stroke="#FFE45E" stroke-width="4"/>
        <line x1="56.57" y1="-56.57" x2="42.43" y2="-42.43" stroke="#FFE45E" stroke-width="4"/>
        <line x1="56.57" y1="56.57" x2="42.43" y2="42.43" stroke="#FFE45E" stroke-width="4"/>
        <line x1="-56.57" y1="56.57" x2="-42.43" y2="42.43" stroke="#FFE45E" stroke-width="4"/>
        <line x1="-56.57" y1="-56.57" x2="-42.43" y2="-42.43" stroke="#FFE45E" stroke-width="4"/>
    </g>
    
    <!-- Nuvens -->
    <g transform="translate(500, 100)">
        <ellipse cx="0" cy="0" rx="40" ry="20" fill="#FFFFFF"/>
        <ellipse cx="30" cy="0" rx="30" ry="15" fill="#FFFFFF"/>
        <ellipse cx="-30" cy="0" rx="30" ry="15" fill="#FFFFFF"/>
    </g>
    
    <g transform="translate(300, 200)">
        <ellipse cx="0" cy="0" rx="40" ry="20" fill="#FFFFFF"/>
        <ellipse cx="30" cy="0" rx="30" ry="15" fill="#FFFFFF"/>
        <ellipse cx="-30" cy="0" rx="30" ry="15" fill="#FFFFFF"/>
    </g>
</svg> 